<mxfile host="app.diagrams.net" agent="Mozilla/5.0 (X11; Ubuntu; Linux x86_64; rv:137.0) Gecko/20100101 Firefox/137.0" version="26.2.12">
  <diagram name="Page-1" id="EBaYc_MCtsnFBZcOrG8z">
    <mxGraphModel dx="1358" dy="763" grid="1" gridSize="10" guides="1" tooltips="1" connect="1" arrows="1" fold="1" page="1" pageScale="1" pageWidth="850" pageHeight="1100" math="0" shadow="0">
      <root>
        <mxCell id="0" />
        <mxCell id="1" parent="0" />
        <mxCell id="vy2xNTIvnw-iv22h3dtW-72" value="" style="rounded=1;whiteSpace=wrap;html=1;dashed=1;" parent="1" vertex="1">
          <mxGeometry x="312.5" y="840" width="174.74" height="90" as="geometry" />
        </mxCell>
        <mxCell id="vy2xNTIvnw-iv22h3dtW-42" value="" style="rounded=1;whiteSpace=wrap;html=1;dashed=1;" parent="1" vertex="1">
          <mxGeometry x="729.25" y="655" width="130.5" height="130" as="geometry" />
        </mxCell>
        <mxCell id="vy2xNTIvnw-iv22h3dtW-43" style="edgeStyle=orthogonalEdgeStyle;rounded=0;orthogonalLoop=1;jettySize=auto;html=1;exitX=1;exitY=0.5;exitDx=0;exitDy=0;entryX=0;entryY=0.5;entryDx=0;entryDy=0;" parent="1" source="vy2xNTIvnw-iv22h3dtW-37" target="vy2xNTIvnw-iv22h3dtW-42" edge="1">
          <mxGeometry relative="1" as="geometry" />
        </mxCell>
        <mxCell id="vy2xNTIvnw-iv22h3dtW-37" value="" style="rounded=1;whiteSpace=wrap;html=1;dashed=1;" parent="1" vertex="1">
          <mxGeometry x="510" y="640" width="175" height="160" as="geometry" />
        </mxCell>
        <mxCell id="vy2xNTIvnw-iv22h3dtW-26" style="edgeStyle=orthogonalEdgeStyle;rounded=0;orthogonalLoop=1;jettySize=auto;html=1;exitX=1;exitY=0.5;exitDx=0;exitDy=0;entryX=0;entryY=0.5;entryDx=0;entryDy=0;" parent="1" source="vy2xNTIvnw-iv22h3dtW-19" target="vy2xNTIvnw-iv22h3dtW-23" edge="1">
          <mxGeometry relative="1" as="geometry" />
        </mxCell>
        <mxCell id="vy2xNTIvnw-iv22h3dtW-27" style="edgeStyle=orthogonalEdgeStyle;rounded=0;orthogonalLoop=1;jettySize=auto;html=1;exitX=0;exitY=0.5;exitDx=0;exitDy=0;entryX=1;entryY=0.5;entryDx=0;entryDy=0;" parent="1" source="vy2xNTIvnw-iv22h3dtW-19" target="vy2xNTIvnw-iv22h3dtW-24" edge="1">
          <mxGeometry relative="1" as="geometry" />
        </mxCell>
        <mxCell id="vy2xNTIvnw-iv22h3dtW-29" style="edgeStyle=orthogonalEdgeStyle;rounded=0;orthogonalLoop=1;jettySize=auto;html=1;exitX=0.5;exitY=1;exitDx=0;exitDy=0;entryX=0.5;entryY=0;entryDx=0;entryDy=0;" parent="1" source="vy2xNTIvnw-iv22h3dtW-19" target="vy2xNTIvnw-iv22h3dtW-28" edge="1">
          <mxGeometry relative="1" as="geometry" />
        </mxCell>
        <mxCell id="vy2xNTIvnw-iv22h3dtW-19" value="" style="rounded=1;whiteSpace=wrap;html=1;dashed=1;" parent="1" vertex="1">
          <mxGeometry x="270" y="340" width="260" height="110" as="geometry" />
        </mxCell>
        <mxCell id="vy2xNTIvnw-iv22h3dtW-8" style="edgeStyle=orthogonalEdgeStyle;rounded=0;orthogonalLoop=1;jettySize=auto;html=1;exitX=0;exitY=0.5;exitDx=0;exitDy=0;" parent="1" source="vy2xNTIvnw-iv22h3dtW-7" target="vy2xNTIvnw-iv22h3dtW-6" edge="1">
          <mxGeometry relative="1" as="geometry" />
        </mxCell>
        <mxCell id="vy2xNTIvnw-iv22h3dtW-7" value="" style="rounded=1;whiteSpace=wrap;html=1;dashed=1;" parent="1" vertex="1">
          <mxGeometry x="280" y="91" width="180" height="94" as="geometry" />
        </mxCell>
        <mxCell id="vy2xNTIvnw-iv22h3dtW-2" value="" style="sketch=0;pointerEvents=1;shadow=0;dashed=0;html=1;strokeColor=none;fillColor=#434445;aspect=fixed;labelPosition=center;verticalLabelPosition=bottom;verticalAlign=top;align=center;outlineConnect=0;shape=mxgraph.vvd.laptop;" parent="1" vertex="1">
          <mxGeometry x="305" y="113" width="50" height="36" as="geometry" />
        </mxCell>
        <mxCell id="vy2xNTIvnw-iv22h3dtW-5" value="" style="sketch=0;verticalLabelPosition=bottom;sketch=0;aspect=fixed;html=1;verticalAlign=top;strokeColor=none;fillColor=#000000;align=center;outlineConnect=0;pointerEvents=1;shape=mxgraph.citrix2.mobile;" parent="1" vertex="1">
          <mxGeometry x="410" y="106" width="25.255" height="50" as="geometry" />
        </mxCell>
        <mxCell id="vy2xNTIvnw-iv22h3dtW-6" value="" style="image;aspect=fixed;html=1;points=[];align=center;fontSize=12;image=img/lib/azure2/networking/DNS_Zones.svg;" parent="1" vertex="1">
          <mxGeometry x="180" y="106" width="64" height="64" as="geometry" />
        </mxCell>
        <mxCell id="vy2xNTIvnw-iv22h3dtW-12" style="edgeStyle=orthogonalEdgeStyle;rounded=0;orthogonalLoop=1;jettySize=auto;html=1;exitX=0.5;exitY=1;exitDx=0;exitDy=0;" parent="1" source="vy2xNTIvnw-iv22h3dtW-7" target="vy2xNTIvnw-iv22h3dtW-11" edge="1">
          <mxGeometry relative="1" as="geometry" />
        </mxCell>
        <mxCell id="vy2xNTIvnw-iv22h3dtW-9" value="Web browser" style="text;html=1;align=center;verticalAlign=middle;whiteSpace=wrap;rounded=0;" parent="1" vertex="1">
          <mxGeometry x="292.5" y="155" width="75" height="30" as="geometry" />
        </mxCell>
        <mxCell id="vy2xNTIvnw-iv22h3dtW-10" value="Mobile app" style="text;html=1;align=center;verticalAlign=middle;whiteSpace=wrap;rounded=0;" parent="1" vertex="1">
          <mxGeometry x="380" y="156" width="75" height="30" as="geometry" />
        </mxCell>
        <mxCell id="vy2xNTIvnw-iv22h3dtW-11" value="" style="sketch=0;outlineConnect=0;fontColor=#232F3E;gradientColor=none;fillColor=#8C4FFF;strokeColor=none;dashed=0;verticalLabelPosition=bottom;verticalAlign=top;align=center;html=1;fontSize=12;fontStyle=0;aspect=fixed;pointerEvents=1;shape=mxgraph.aws4.application_load_balancer;" parent="1" vertex="1">
          <mxGeometry x="331" y="230" width="78" height="78" as="geometry" />
        </mxCell>
        <mxCell id="vy2xNTIvnw-iv22h3dtW-13" value="Load balancer" style="text;html=1;align=center;verticalAlign=middle;whiteSpace=wrap;rounded=0;" parent="1" vertex="1">
          <mxGeometry x="409" y="254" width="81" height="30" as="geometry" />
        </mxCell>
        <mxCell id="vy2xNTIvnw-iv22h3dtW-14" value="v1/me/feed?content=Hello&amp;amp;auth_token=(auth_token)" style="text;html=1;align=center;verticalAlign=middle;whiteSpace=wrap;rounded=0;" parent="1" vertex="1">
          <mxGeometry x="374" y="190" width="256" height="30" as="geometry" />
        </mxCell>
        <mxCell id="vy2xNTIvnw-iv22h3dtW-15" value="" style="sketch=0;pointerEvents=1;shadow=0;dashed=0;html=1;strokeColor=none;labelPosition=center;verticalLabelPosition=bottom;verticalAlign=top;outlineConnect=0;align=center;shape=mxgraph.office.servers.virtual_web_server;fillColor=#2072B8;" parent="1" vertex="1">
          <mxGeometry x="292.5" y="360" width="44" height="55" as="geometry" />
        </mxCell>
        <mxCell id="vy2xNTIvnw-iv22h3dtW-16" value="" style="sketch=0;pointerEvents=1;shadow=0;dashed=0;html=1;strokeColor=none;labelPosition=center;verticalLabelPosition=bottom;verticalAlign=top;outlineConnect=0;align=center;shape=mxgraph.office.servers.virtual_web_server;fillColor=#2072B8;" parent="1" vertex="1">
          <mxGeometry x="348" y="360" width="44" height="55" as="geometry" />
        </mxCell>
        <mxCell id="vy2xNTIvnw-iv22h3dtW-20" value="Web servers" style="text;html=1;align=center;verticalAlign=middle;whiteSpace=wrap;rounded=0;" parent="1" vertex="1">
          <mxGeometry x="292.5" y="420" width="80" height="30" as="geometry" />
        </mxCell>
        <mxCell id="vy2xNTIvnw-iv22h3dtW-21" value="Authentication" style="rounded=1;whiteSpace=wrap;html=1;" parent="1" vertex="1">
          <mxGeometry x="400" y="350" width="120" height="30" as="geometry" />
        </mxCell>
        <mxCell id="vy2xNTIvnw-iv22h3dtW-22" value="Rate Limiting" style="rounded=1;whiteSpace=wrap;html=1;" parent="1" vertex="1">
          <mxGeometry x="400" y="380" width="120" height="30" as="geometry" />
        </mxCell>
        <mxCell id="vy2xNTIvnw-iv22h3dtW-23" value="Notification Service" style="rounded=1;whiteSpace=wrap;html=1;" parent="1" vertex="1">
          <mxGeometry x="600" y="365" width="120" height="60" as="geometry" />
        </mxCell>
        <mxCell id="vy2xNTIvnw-iv22h3dtW-52" style="edgeStyle=orthogonalEdgeStyle;rounded=0;orthogonalLoop=1;jettySize=auto;html=1;exitX=0.5;exitY=1;exitDx=0;exitDy=0;entryX=0.5;entryY=0;entryDx=0;entryDy=0;" parent="1" source="vy2xNTIvnw-iv22h3dtW-24" target="vy2xNTIvnw-iv22h3dtW-46" edge="1">
          <mxGeometry relative="1" as="geometry" />
        </mxCell>
        <mxCell id="vy2xNTIvnw-iv22h3dtW-24" value="Post Service" style="rounded=1;whiteSpace=wrap;html=1;" parent="1" vertex="1">
          <mxGeometry x="80" y="365" width="120" height="60" as="geometry" />
        </mxCell>
        <mxCell id="vy2xNTIvnw-iv22h3dtW-28" value="Fanout Service" style="rounded=1;whiteSpace=wrap;html=1;" parent="1" vertex="1">
          <mxGeometry x="340" y="510" width="120" height="60" as="geometry" />
        </mxCell>
        <mxCell id="vy2xNTIvnw-iv22h3dtW-31" value="" style="points=[];aspect=fixed;html=1;align=center;shadow=0;dashed=0;fillColor=#FF6A00;strokeColor=none;shape=mxgraph.alibaba_cloud.gdb_graph_database;" parent="1" vertex="1">
          <mxGeometry x="590" y="516.3" width="54.900000000000006" height="47.400000000000006" as="geometry" />
        </mxCell>
        <mxCell id="vy2xNTIvnw-iv22h3dtW-32" style="edgeStyle=orthogonalEdgeStyle;rounded=0;orthogonalLoop=1;jettySize=auto;html=1;exitX=1;exitY=0.5;exitDx=0;exitDy=0;entryX=-0.018;entryY=0.5;entryDx=0;entryDy=0;entryPerimeter=0;" parent="1" source="vy2xNTIvnw-iv22h3dtW-28" target="vy2xNTIvnw-iv22h3dtW-31" edge="1">
          <mxGeometry relative="1" as="geometry" />
        </mxCell>
        <mxCell id="vy2xNTIvnw-iv22h3dtW-33" value="1. get friend ids" style="text;html=1;align=center;verticalAlign=middle;whiteSpace=wrap;rounded=0;" parent="1" vertex="1">
          <mxGeometry x="472" y="510" width="98" height="30" as="geometry" />
        </mxCell>
        <mxCell id="vy2xNTIvnw-iv22h3dtW-34" value="Cache" style="rounded=1;whiteSpace=wrap;html=1;fillColor=#1ba1e2;fontColor=#ffffff;strokeColor=#006EAF;" parent="1" vertex="1">
          <mxGeometry x="545" y="650" width="50" height="40" as="geometry" />
        </mxCell>
        <mxCell id="vy2xNTIvnw-iv22h3dtW-35" value="Cache" style="rounded=1;whiteSpace=wrap;html=1;fillColor=#1ba1e2;fontColor=#ffffff;strokeColor=#006EAF;" parent="1" vertex="1">
          <mxGeometry x="575" y="680" width="50" height="40" as="geometry" />
        </mxCell>
        <mxCell id="vy2xNTIvnw-iv22h3dtW-36" value="Cache" style="rounded=1;whiteSpace=wrap;html=1;fillColor=#1ba1e2;fontColor=#ffffff;strokeColor=#006EAF;" parent="1" vertex="1">
          <mxGeometry x="595" y="710" width="50" height="40" as="geometry" />
        </mxCell>
        <mxCell id="vy2xNTIvnw-iv22h3dtW-38" value="" style="endArrow=classic;html=1;rounded=0;entryX=0.5;entryY=0;entryDx=0;entryDy=0;exitX=1;exitY=0.5;exitDx=0;exitDy=0;" parent="1" source="vy2xNTIvnw-iv22h3dtW-28" target="vy2xNTIvnw-iv22h3dtW-37" edge="1">
          <mxGeometry width="50" height="50" relative="1" as="geometry">
            <mxPoint x="400" y="570" as="sourcePoint" />
            <mxPoint x="450" y="520" as="targetPoint" />
          </mxGeometry>
        </mxCell>
        <mxCell id="vy2xNTIvnw-iv22h3dtW-39" value="2. get friends data" style="text;html=1;align=center;verticalAlign=middle;whiteSpace=wrap;rounded=0;rotation=35;" parent="1" vertex="1">
          <mxGeometry x="502" y="575" width="98" height="30" as="geometry" />
        </mxCell>
        <mxCell id="vy2xNTIvnw-iv22h3dtW-41" value="" style="sketch=0;shadow=0;dashed=0;html=1;strokeColor=none;fillColor=#505050;labelPosition=center;verticalLabelPosition=bottom;verticalAlign=top;outlineConnect=0;align=center;shape=mxgraph.office.databases.database_availability_group;" parent="1" vertex="1">
          <mxGeometry x="765" y="675.5" width="59" height="59" as="geometry" />
        </mxCell>
        <mxCell id="vy2xNTIvnw-iv22h3dtW-44" value="User Cache" style="text;html=1;align=center;verticalAlign=middle;whiteSpace=wrap;rounded=0;" parent="1" vertex="1">
          <mxGeometry x="565" y="760" width="70" height="30" as="geometry" />
        </mxCell>
        <mxCell id="vy2xNTIvnw-iv22h3dtW-45" value="User DB" style="text;html=1;align=center;verticalAlign=middle;whiteSpace=wrap;rounded=0;" parent="1" vertex="1">
          <mxGeometry x="759.5" y="750" width="70" height="30" as="geometry" />
        </mxCell>
        <mxCell id="vy2xNTIvnw-iv22h3dtW-56" style="edgeStyle=orthogonalEdgeStyle;rounded=0;orthogonalLoop=1;jettySize=auto;html=1;exitX=0.5;exitY=1;exitDx=0;exitDy=0;entryX=0.5;entryY=0;entryDx=0;entryDy=0;" parent="1" source="vy2xNTIvnw-iv22h3dtW-46" target="vy2xNTIvnw-iv22h3dtW-53" edge="1">
          <mxGeometry relative="1" as="geometry" />
        </mxCell>
        <mxCell id="vy2xNTIvnw-iv22h3dtW-46" value="" style="rounded=1;whiteSpace=wrap;html=1;dashed=1;" parent="1" vertex="1">
          <mxGeometry x="52.5" y="495" width="175" height="160" as="geometry" />
        </mxCell>
        <mxCell id="vy2xNTIvnw-iv22h3dtW-47" value="Cache" style="rounded=1;whiteSpace=wrap;html=1;fillColor=#1ba1e2;fontColor=#ffffff;strokeColor=#006EAF;" parent="1" vertex="1">
          <mxGeometry x="87.5" y="505" width="50" height="40" as="geometry" />
        </mxCell>
        <mxCell id="vy2xNTIvnw-iv22h3dtW-48" value="Cache" style="rounded=1;whiteSpace=wrap;html=1;fillColor=#1ba1e2;fontColor=#ffffff;strokeColor=#006EAF;" parent="1" vertex="1">
          <mxGeometry x="117.5" y="535" width="50" height="40" as="geometry" />
        </mxCell>
        <mxCell id="vy2xNTIvnw-iv22h3dtW-49" value="Cache" style="rounded=1;whiteSpace=wrap;html=1;fillColor=#1ba1e2;fontColor=#ffffff;strokeColor=#006EAF;" parent="1" vertex="1">
          <mxGeometry x="137.5" y="565" width="50" height="40" as="geometry" />
        </mxCell>
        <mxCell id="vy2xNTIvnw-iv22h3dtW-50" value="Post Cache" style="text;html=1;align=center;verticalAlign=middle;whiteSpace=wrap;rounded=0;" parent="1" vertex="1">
          <mxGeometry x="107.5" y="615" width="70" height="30" as="geometry" />
        </mxCell>
        <mxCell id="vy2xNTIvnw-iv22h3dtW-53" value="" style="rounded=1;whiteSpace=wrap;html=1;dashed=1;" parent="1" vertex="1">
          <mxGeometry x="74.75" y="710" width="130.5" height="130" as="geometry" />
        </mxCell>
        <mxCell id="vy2xNTIvnw-iv22h3dtW-54" value="" style="sketch=0;shadow=0;dashed=0;html=1;strokeColor=none;fillColor=#505050;labelPosition=center;verticalLabelPosition=bottom;verticalAlign=top;outlineConnect=0;align=center;shape=mxgraph.office.databases.database_availability_group;" parent="1" vertex="1">
          <mxGeometry x="110.5" y="730.5" width="59" height="59" as="geometry" />
        </mxCell>
        <mxCell id="vy2xNTIvnw-iv22h3dtW-55" value="Post DB" style="text;html=1;align=center;verticalAlign=middle;whiteSpace=wrap;rounded=0;" parent="1" vertex="1">
          <mxGeometry x="105" y="805" width="70" height="30" as="geometry" />
        </mxCell>
        <mxCell id="vy2xNTIvnw-iv22h3dtW-60" value="" style="shape=step;perimeter=stepPerimeter;whiteSpace=wrap;html=1;fixedSize=1;" parent="1" vertex="1">
          <mxGeometry x="340" y="720" width="120" height="80" as="geometry" />
        </mxCell>
        <mxCell id="vy2xNTIvnw-iv22h3dtW-61" value="" style="html=1;verticalLabelPosition=bottom;align=center;labelBackgroundColor=#ffffff;verticalAlign=top;strokeWidth=2;strokeColor=#0080F0;shadow=0;dashed=0;shape=mxgraph.ios7.icons.mail;" parent="1" vertex="1">
          <mxGeometry x="367.5" y="751.75" width="30" height="16.5" as="geometry" />
        </mxCell>
        <mxCell id="vy2xNTIvnw-iv22h3dtW-62" value="" style="html=1;verticalLabelPosition=bottom;align=center;labelBackgroundColor=#ffffff;verticalAlign=top;strokeWidth=2;strokeColor=#0080F0;shadow=0;dashed=0;shape=mxgraph.ios7.icons.mail;" parent="1" vertex="1">
          <mxGeometry x="409" y="750" width="30" height="18.25" as="geometry" />
        </mxCell>
        <mxCell id="vy2xNTIvnw-iv22h3dtW-80" style="edgeStyle=orthogonalEdgeStyle;rounded=0;orthogonalLoop=1;jettySize=auto;html=1;exitX=0.5;exitY=1;exitDx=0;exitDy=0;entryX=0.5;entryY=0;entryDx=0;entryDy=0;" parent="1" source="vy2xNTIvnw-iv22h3dtW-64" target="vy2xNTIvnw-iv22h3dtW-72" edge="1">
          <mxGeometry relative="1" as="geometry" />
        </mxCell>
        <mxCell id="vy2xNTIvnw-iv22h3dtW-64" value="Message queue" style="text;html=1;align=center;verticalAlign=middle;whiteSpace=wrap;rounded=0;" parent="1" vertex="1">
          <mxGeometry x="353.75" y="770" width="92.5" height="30" as="geometry" />
        </mxCell>
        <mxCell id="vy2xNTIvnw-iv22h3dtW-67" style="edgeStyle=orthogonalEdgeStyle;rounded=0;orthogonalLoop=1;jettySize=auto;html=1;exitX=0.5;exitY=1;exitDx=0;exitDy=0;entryX=0.5;entryY=0;entryDx=0;entryDy=0;" parent="1" source="vy2xNTIvnw-iv22h3dtW-28" target="vy2xNTIvnw-iv22h3dtW-60" edge="1">
          <mxGeometry relative="1" as="geometry">
            <mxPoint x="400" y="675" as="sourcePoint" />
          </mxGeometry>
        </mxCell>
        <mxCell id="vy2xNTIvnw-iv22h3dtW-68" value="3" style="text;html=1;align=center;verticalAlign=middle;whiteSpace=wrap;rounded=0;" parent="1" vertex="1">
          <mxGeometry x="355" y="685" width="60" height="30" as="geometry" />
        </mxCell>
        <mxCell id="vy2xNTIvnw-iv22h3dtW-69" value="" style="sketch=0;aspect=fixed;pointerEvents=1;shadow=0;dashed=0;html=1;strokeColor=none;labelPosition=center;verticalLabelPosition=bottom;verticalAlign=top;align=center;fillColor=#00188D;shape=mxgraph.mscae.enterprise.web_server" parent="1" vertex="1">
          <mxGeometry x="342" y="850" width="38" height="50" as="geometry" />
        </mxCell>
        <mxCell id="vy2xNTIvnw-iv22h3dtW-70" value="" style="sketch=0;aspect=fixed;pointerEvents=1;shadow=0;dashed=0;html=1;strokeColor=none;labelPosition=center;verticalLabelPosition=bottom;verticalAlign=top;align=center;fillColor=#00188D;shape=mxgraph.mscae.enterprise.web_server" parent="1" vertex="1">
          <mxGeometry x="392" y="850" width="38" height="50" as="geometry" />
        </mxCell>
        <mxCell id="vy2xNTIvnw-iv22h3dtW-71" value="" style="sketch=0;aspect=fixed;pointerEvents=1;shadow=0;dashed=0;html=1;strokeColor=none;labelPosition=center;verticalLabelPosition=bottom;verticalAlign=top;align=center;fillColor=#00188D;shape=mxgraph.mscae.enterprise.web_server" parent="1" vertex="1">
          <mxGeometry x="439" y="850" width="38" height="50" as="geometry" />
        </mxCell>
        <mxCell id="vy2xNTIvnw-iv22h3dtW-81" style="edgeStyle=orthogonalEdgeStyle;rounded=0;orthogonalLoop=1;jettySize=auto;html=1;exitX=0.433;exitY=1.033;exitDx=0;exitDy=0;entryX=0.5;entryY=0;entryDx=0;entryDy=0;exitPerimeter=0;" parent="1" source="vy2xNTIvnw-iv22h3dtW-74" target="vy2xNTIvnw-iv22h3dtW-75" edge="1">
          <mxGeometry relative="1" as="geometry" />
        </mxCell>
        <mxCell id="vy2xNTIvnw-iv22h3dtW-74" value="Fanout Workers" style="text;html=1;align=center;verticalAlign=middle;whiteSpace=wrap;rounded=0;" parent="1" vertex="1">
          <mxGeometry x="360" y="900" width="90" height="30" as="geometry" />
        </mxCell>
        <mxCell id="vy2xNTIvnw-iv22h3dtW-75" value="" style="rounded=1;whiteSpace=wrap;html=1;dashed=1;" parent="1" vertex="1">
          <mxGeometry x="312.24" y="980" width="175" height="160" as="geometry" />
        </mxCell>
        <mxCell id="vy2xNTIvnw-iv22h3dtW-76" value="Cache" style="rounded=1;whiteSpace=wrap;html=1;fillColor=#1ba1e2;fontColor=#ffffff;strokeColor=#006EAF;" parent="1" vertex="1">
          <mxGeometry x="347.5" y="990" width="50" height="40" as="geometry" />
        </mxCell>
        <mxCell id="vy2xNTIvnw-iv22h3dtW-77" value="Cache" style="rounded=1;whiteSpace=wrap;html=1;fillColor=#1ba1e2;fontColor=#ffffff;strokeColor=#006EAF;" parent="1" vertex="1">
          <mxGeometry x="377.5" y="1020" width="50" height="40" as="geometry" />
        </mxCell>
        <mxCell id="vy2xNTIvnw-iv22h3dtW-78" value="Cache" style="rounded=1;whiteSpace=wrap;html=1;fillColor=#1ba1e2;fontColor=#ffffff;strokeColor=#006EAF;" parent="1" vertex="1">
          <mxGeometry x="397.5" y="1050" width="50" height="40" as="geometry" />
        </mxCell>
        <mxCell id="vy2xNTIvnw-iv22h3dtW-79" value="News Feed Cache" style="text;html=1;align=center;verticalAlign=middle;whiteSpace=wrap;rounded=0;" parent="1" vertex="1">
          <mxGeometry x="367.5" y="1100" width="70" height="30" as="geometry" />
        </mxCell>
      </root>
    </mxGraphModel>
  </diagram>
</mxfile>
